
<svg xmlns="http://www.w3.org/2000/svg" width="141.69" height="78" viewBox="0 0 141.69 78">
  <defs>
    <style>
      .a {
        fill: #95d600;
      }

      .b {
        fill: #fff;
      }
    </style>
  </defs>
  <title>tiller-digital-white</title>
  <g>
    <path class="a" d="M114.49,78H22.62a.7.7,0,0,1-.68-.83l4-20a.7.7,0,0,1,.68-.56h91.87a.7.7,0,0,1,.68.83l-4,20A.7.7,0,0,1,114.49,78Z" transform="translate(-0.15)"/>
    <g>
      <path class="b" d="M37.55,61.91H33.89a.36.36,0,0,0-.35.28l-2,10.38a.33.33,0,0,0,.07.28.35.35,0,0,0,.27.12h3.45a8.17,8.17,0,0,0,5.18-1.5,6.65,6.65,0,0,0,2.4-4.07,4.36,4.36,0,0,0-.87-4A5.91,5.91,0,0,0,37.55,61.91ZM35.9,71H34.06A.09.09,0,0,1,34,71a.08.08,0,0,1,0-.07l1.38-7a.09.09,0,0,1,.09-.07h1.7a4,4,0,0,1,3.13,1,2.94,2.94,0,0,1,.42,2.56,4.21,4.21,0,0,1-1.57,2.68A5.3,5.3,0,0,1,35.9,71Z" transform="translate(-0.15)"/>
      <path class="b" d="M50,61.91H48.6a.36.36,0,0,0-.35.28l-2,10.38a.33.33,0,0,0,.07.28.35.35,0,0,0,.27.12H48a.36.36,0,0,0,.35-.28l2-10.38a.33.33,0,0,0-.07-.28A.35.35,0,0,0,50,61.91Z" transform="translate(-0.15)"/>
      <path class="b" d="M60.76,61.65a7.13,7.13,0,0,0-4.52,1.64,6.82,6.82,0,0,0-2.54,4.1,4.6,4.6,0,0,0,.91,4.09,5,5,0,0,0,3.94,1.62,7.27,7.27,0,0,0,4.89-1.67.35.35,0,0,0,.12-.2l.67-3.37a.33.33,0,0,0-.07-.28.35.35,0,0,0-.27-.12H62.44a.36.36,0,0,0-.35.28l-.53,2.69a.09.09,0,0,1,0,.06,5.62,5.62,0,0,1-2.64.6,3,3,0,0,1-2.41-1,3,3,0,0,1-.55-2.66,4.42,4.42,0,0,1,1.65-2.71,4.74,4.74,0,0,1,3-1,4.65,4.65,0,0,1,1.46.2,2.84,2.84,0,0,1,1,.58.35.35,0,0,0,.23.09.36.36,0,0,0,.27-.12l1-1.07a.33.33,0,0,0,0-.48A5.25,5.25,0,0,0,60.76,61.65Z" transform="translate(-0.15)"/>
      <path class="b" d="M71.53,61.91H70.09a.36.36,0,0,0-.35.28l-2,10.38a.33.33,0,0,0,.07.28A.35.35,0,0,0,68,73h1.44a.36.36,0,0,0,.35-.28l2-10.38A.33.33,0,0,0,71.8,62,.35.35,0,0,0,71.53,61.91Z" transform="translate(-0.15)"/>
      <path class="b" d="M84.45,61.91H76.22a.36.36,0,0,0-.35.28l-.25,1.24a.33.33,0,0,0,.07.28.35.35,0,0,0,.27.12h2.87a.09.09,0,0,1,.07,0,.08.08,0,0,1,0,.07l-1.7,8.64a.33.33,0,0,0,.07.28.35.35,0,0,0,.27.12H79a.36.36,0,0,0,.35-.28l1.73-8.79a.09.09,0,0,1,.09-.07h3a.36.36,0,0,0,.35-.28l.25-1.24a.33.33,0,0,0-.07-.28A.35.35,0,0,0,84.45,61.91Z" transform="translate(-0.15)"/>
      <path class="b" d="M93.63,62.16a.35.35,0,0,0-.34-.25H91.57a.36.36,0,0,0-.3.16L84.49,72.45a.33.33,0,0,0,0,.35.35.35,0,0,0,.31.18h1.5a.36.36,0,0,0,.3-.16l1.47-2.26a.09.09,0,0,1,.08,0h5.31a.09.09,0,0,1,.09.06l.55,2.14a.35.35,0,0,0,.34.25H96a.36.36,0,0,0,.28-.13.33.33,0,0,0,.07-.3ZM93,68.47a.08.08,0,0,1,0,.07.09.09,0,0,1-.07,0H89.5a.09.09,0,0,1-.08,0,.08.08,0,0,1,0-.09l2.42-3.7a.09.09,0,0,1,.08,0,.09.09,0,0,1,.09.06Z" transform="translate(-0.15)"/>
      <path class="b" d="M107.35,71.11a.35.35,0,0,0-.27-.12H102.5a.09.09,0,0,1-.07,0,.08.08,0,0,1,0-.07l1.69-8.58A.33.33,0,0,0,104,62a.35.35,0,0,0-.27-.12h-1.44a.36.36,0,0,0-.35.28l-2,10.38a.33.33,0,0,0,.07.28.35.35,0,0,0,.27.12h6.54a.36.36,0,0,0,.35-.28l.26-1.3A.33.33,0,0,0,107.35,71.11Z" transform="translate(-0.15)"/>
    </g>
    <path class="b" d="M46,9.4,47.7.72A.6.6,0,0,0,47.11,0H38L36.09,9.88H45.4A.6.6,0,0,0,46,9.4ZM33.51,0h-31a.6.6,0,0,0-.59.49L.16,9.16a.6.6,0,0,0,.59.72H16.63L9.47,46a.6.6,0,0,0,.59.72h8.65a.6.6,0,0,0,.59-.49L26.51,9.88h5.06ZM141.27,16.18a3.66,3.66,0,0,0-2.93-1.72c-3.18-.38-7,1.27-11.38,4.88l-.37.31.9-4.54a.6.6,0,0,0-.59-.72h-8.65a.6.6,0,0,0-.59.49L114,33C99.83,46.09,96.42,37.4,96.81,37c16.86-7.57,17.42-22.2,6.29-22.65-13.18-.54-15.53,15.71-15.53,19,0,.52,0,1.33.05,2.3l-.05,0c-1.46.89-3.65,2-5.21,2a2.89,2.89,0,0,1-.58-.06c-1.56-.32-2.17-1.45-1.82-3.36l0-.13L86.64.72A.6.6,0,0,0,86,0H77.4a.6.6,0,0,0-.59.49l-6.71,34-.05,0c-1.73,1.3-5,3.48-7.12,3.48a2.73,2.73,0,0,1-.55-.05c-1.57-.32-2.18-1.54-1.81-3.6l0-.12L67.23.72A.6.6,0,0,0,66.64,0H58a.6.6,0,0,0-.59.49L50.7,34.4l-.05,0c-1.38,1-4.83,3.34-7.15,3.34a2.9,2.9,0,0,1-.58-.06c-1.56-.32-2.17-1.45-1.82-3.36l0-.13L45,14.87a.39.39,0,0,0-.39-.47H35.52a.4.4,0,0,0-.39.32L31.29,34.17c-.55,2.78-1.58,8,.95,10.66A6.37,6.37,0,0,0,37,46.68c2.56,0,6.86-1.09,12.83-6.27l.26-.23,0,.35a6.83,6.83,0,0,0,1.59,4.31,6.38,6.38,0,0,0,4.76,1.84c2.55,0,6.83-1.08,12.78-6.23l.26-.23,0,.34a6.8,6.8,0,0,0,1.59,4.27,6.37,6.37,0,0,0,4.75,1.84c2.48,0,7-1.14,12.75-6h0c1.2,3.18,3.81,6.12,9.47,6.12.38,0,.75,0,1.13,0h.13c.36,0,.72-.07,1.08-.13h0a19.81,19.81,0,0,0,7-2.63l.1-.06h0A31.16,31.16,0,0,0,112.66,40l-1.19,6a.6.6,0,0,0,.59.72h8.65a.6.6,0,0,0,.59-.49l4-20.06,0,0c2.65-2.51,4.61-3.55,5.83-3.1,1,.37,1.2,1.57.61,3.66a.6.6,0,0,0,.58.77h6.76a.6.6,0,0,0,.56-.36C141.86,21.93,142.41,18.17,141.27,16.18ZM96.33,32l.1-.36c0-.07,1.31-4.94,3.34-7.65,1.75-2.34,3.46-1.57,3.46-1.57a1.54,1.54,0,0,1,1.11,1.44c.09,2.2-3.63,6.08-7.66,8Z" transform="translate(-0.15)"/>
  </g>
</svg>
